<svg width="2869" height="921" viewBox="0 0 2869 921" fill="none" xmlns="http://www.w3.org/2000/svg">
<rect x="14.1421" width="1282" height="20" transform="rotate(45 14.1421 0)" fill="#E0E0E0"/>
<rect width="1282" height="20" transform="matrix(-0.707107 0.707107 0.707107 0.707107 906.511 0)" fill="#E0E0E0"/>
<path d="M447.137 219V61.5781H471.844V219H447.137Z" fill="#E0E0E0"/>
<path d="M830.895 386.188H855.699V546.734H854.527L753.844 441.559V544.195H729.137V383.844H730.406L830.895 488.824V386.188Z" fill="#E0E0E0"/>
<path d="M511.887 736.797H442.844V778.887H502.414V803.496H442.844V870.195H418.137V712.188H511.887V736.797Z" fill="#E0E0E0"/>
<path d="M104.492 544V476.715L52.2461 386.578H80.0781L116.699 449.273L153.418 386.578H181.25L129.004 476.715V544H104.492Z" fill="#E0E0E0"/>
<path d="M1195.25 463V288H1220.25V463H1195.25ZM1272.64 463V288H1293.14L1408.89 431.75H1398.14V288H1423.14V463H1402.64L1286.89 319.25H1297.64V463H1272.64ZM1553.77 465C1540.44 465 1528.11 462.833 1516.77 458.5C1505.61 454 1495.86 447.75 1487.52 439.75C1479.36 431.583 1472.94 422.083 1468.27 411.25C1463.61 400.417 1461.27 388.5 1461.27 375.5C1461.27 362.5 1463.61 350.583 1468.27 339.75C1472.94 328.917 1479.44 319.5 1487.77 311.5C1496.11 303.333 1505.86 297.083 1517.02 292.75C1528.36 288.25 1540.69 286 1554.02 286C1567.52 286 1579.94 288.333 1591.27 293C1602.77 297.5 1612.52 304.25 1620.52 313.25L1604.27 329C1597.61 322 1590.11 316.833 1581.77 313.5C1573.44 310 1564.52 308.25 1555.02 308.25C1545.19 308.25 1536.02 309.917 1527.52 313.25C1519.19 316.583 1511.94 321.25 1505.77 327.25C1499.61 333.25 1494.77 340.417 1491.27 348.75C1487.94 356.917 1486.27 365.833 1486.27 375.5C1486.27 385.167 1487.94 394.167 1491.27 402.5C1494.77 410.667 1499.61 417.75 1505.77 423.75C1511.94 429.75 1519.19 434.417 1527.52 437.75C1536.02 441.083 1545.19 442.75 1555.02 442.75C1564.52 442.75 1573.44 441.083 1581.77 437.75C1590.11 434.25 1597.61 428.917 1604.27 421.75L1620.52 437.5C1612.52 446.5 1602.77 453.333 1591.27 458C1579.94 462.667 1567.44 465 1553.77 465ZM1656.19 463V288H1681.19V441.25H1775.94V463H1656.19ZM1778.12 463L1857.38 288H1882.13L1961.63 463H1935.38L1864.63 302H1874.63L1803.88 463H1778.12ZM1811.88 419.25L1818.63 399.25H1917.13L1924.38 419.25H1811.88ZM1987.73 463V288H2055.98C2071.31 288 2084.4 290.417 2095.23 295.25C2106.06 300.083 2114.4 307.083 2120.23 316.25C2126.06 325.417 2128.98 336.333 2128.98 349C2128.98 361.667 2126.06 372.583 2120.23 381.75C2114.4 390.75 2106.06 397.667 2095.23 402.5C2084.4 407.333 2071.31 409.75 2055.98 409.75H2001.48L2012.73 398.25V463H1987.73ZM2104.73 463L2060.23 399.5H2086.98L2131.98 463H2104.73ZM2012.73 400.75L2001.48 388.5H2055.23C2071.23 388.5 2083.31 385.083 2091.48 378.25C2099.81 371.25 2103.98 361.5 2103.98 349C2103.98 336.5 2099.81 326.833 2091.48 320C2083.31 313.167 2071.23 309.75 2055.23 309.75H2001.48L2012.73 297.25V400.75ZM2169.37 463V288H2194.37V463H2169.37ZM2269.26 370.75H2359.51V392.25H2269.26V370.75ZM2271.76 463H2246.76V288H2370.26V309.75H2271.76V463ZM2447.71 463V396L2453.46 411.5L2378.21 288H2404.96L2468.21 392.25H2453.71L2517.21 288H2541.96L2466.96 411.5L2472.46 396V463H2447.71ZM2607.96 463L2687.21 288H2711.96L2791.46 463H2765.21L2694.46 302H2704.46L2633.71 463H2607.96ZM2641.71 419.25L2648.46 399.25H2746.96L2754.21 419.25H2641.71ZM2817.56 463V288H2842.56V463H2817.56ZM1169.32 658L1220.52 546H1232.2L1283.4 658H1270.92L1223.88 552.88H1228.68L1181.64 658H1169.32ZM1189.48 628.08L1193 618.48H1258.12L1261.64 628.08H1189.48ZM1332.69 658.8C1325.54 658.8 1319.3 657.467 1313.97 654.8C1308.63 652.133 1304.47 648.133 1301.49 642.8C1298.61 637.467 1297.17 630.8 1297.17 622.8V574H1308.53V621.52C1308.53 630.48 1310.71 637.253 1315.09 641.84C1319.57 646.32 1325.81 648.56 1333.81 648.56C1339.67 648.56 1344.74 647.387 1349.01 645.04C1353.38 642.587 1356.69 639.067 1358.93 634.48C1361.27 629.893 1362.45 624.4 1362.45 618V574H1373.81V658H1362.92V634.96L1364.69 639.12C1362.02 645.307 1357.86 650.16 1352.21 653.68C1346.66 657.093 1340.15 658.8 1332.69 658.8ZM1432.03 658.8C1424.13 658.8 1418.05 656.667 1413.79 652.4C1409.52 648.133 1407.39 642.107 1407.39 634.32V555.44H1418.75V633.68C1418.75 638.587 1419.97 642.373 1422.43 645.04C1424.99 647.707 1428.61 649.04 1433.31 649.04C1438.32 649.04 1442.48 647.6 1445.79 644.72L1449.79 652.88C1447.55 654.907 1444.83 656.4 1441.63 657.36C1438.53 658.32 1435.33 658.8 1432.03 658.8ZM1392.35 583.44V574H1444.35V583.44H1392.35ZM1501.74 658.8C1493.63 658.8 1486.32 656.987 1479.82 653.36C1473.42 649.627 1468.35 644.56 1464.62 638.16C1460.88 631.653 1459.02 624.24 1459.02 615.92C1459.02 607.493 1460.88 600.08 1464.62 593.68C1468.35 587.28 1473.42 582.267 1479.82 578.64C1486.22 575.013 1493.52 573.2 1501.74 573.2C1510.06 573.2 1517.42 575.013 1523.82 578.64C1530.32 582.267 1535.39 587.28 1539.02 593.68C1542.75 600.08 1544.62 607.493 1544.62 615.92C1544.62 624.24 1542.75 631.653 1539.02 638.16C1535.39 644.56 1530.32 649.627 1523.82 653.36C1517.31 656.987 1509.95 658.8 1501.74 658.8ZM1501.74 648.72C1507.82 648.72 1513.2 647.387 1517.9 644.72C1522.59 641.947 1526.27 638.107 1528.94 633.2C1531.71 628.187 1533.1 622.427 1533.1 615.92C1533.1 609.307 1531.71 603.547 1528.94 598.64C1526.27 593.733 1522.59 589.947 1517.9 587.28C1513.2 584.507 1507.87 583.12 1501.9 583.12C1495.92 583.12 1490.59 584.507 1485.9 587.28C1481.2 589.947 1477.47 593.733 1474.7 598.64C1471.92 603.547 1470.54 609.307 1470.54 615.92C1470.54 622.427 1471.92 628.187 1474.7 633.2C1477.47 638.107 1481.2 641.947 1485.9 644.72C1490.59 647.387 1495.87 648.72 1501.74 648.72ZM1672.77 573.2C1679.6 573.2 1685.52 574.533 1690.53 577.2C1695.65 579.76 1699.6 583.707 1702.37 589.04C1705.25 594.373 1706.69 601.093 1706.69 609.2V658H1695.33V610.32C1695.33 601.467 1693.2 594.8 1688.93 590.32C1684.77 585.733 1678.85 583.44 1671.17 583.44C1665.41 583.44 1660.4 584.667 1656.13 587.12C1651.97 589.467 1648.72 592.933 1646.37 597.52C1644.13 602 1643.01 607.44 1643.01 613.84V658H1631.65V610.32C1631.65 601.467 1629.52 594.8 1625.25 590.32C1620.98 585.733 1615.01 583.44 1607.33 583.44C1601.68 583.44 1596.72 584.667 1592.45 587.12C1588.18 589.467 1584.88 592.933 1582.53 597.52C1580.29 602 1579.17 607.44 1579.17 613.84V658H1567.81V574H1578.69V596.72L1576.93 592.72C1579.49 586.64 1583.6 581.893 1589.25 578.48C1595.01 574.96 1601.78 573.2 1609.57 573.2C1617.78 573.2 1624.77 575.28 1630.53 579.44C1636.29 583.493 1640.02 589.627 1641.73 597.84L1637.25 596.08C1639.7 589.253 1644.02 583.76 1650.21 579.6C1656.5 575.333 1664.02 573.2 1672.77 573.2ZM1790.14 658V639.44L1789.66 636.4V605.36C1789.66 598.213 1787.63 592.72 1783.58 588.88C1779.63 585.04 1773.71 583.12 1765.82 583.12C1760.38 583.12 1755.2 584.027 1750.3 585.84C1745.39 587.653 1741.23 590.053 1737.82 593.04L1732.7 584.56C1736.96 580.933 1742.08 578.16 1748.06 576.24C1754.03 574.213 1760.32 573.2 1766.94 573.2C1777.82 573.2 1786.19 575.92 1792.06 581.36C1798.03 586.693 1801.02 594.853 1801.02 605.84V658H1790.14ZM1761.18 658.8C1754.88 658.8 1749.39 657.787 1744.7 655.76C1740.11 653.627 1736.59 650.747 1734.14 647.12C1731.68 643.387 1730.46 639.12 1730.46 634.32C1730.46 629.947 1731.47 626 1733.5 622.48C1735.63 618.853 1739.04 615.973 1743.74 613.84C1748.54 611.6 1754.94 610.48 1762.94 610.48H1791.9V618.96H1763.26C1755.15 618.96 1749.5 620.4 1746.3 623.28C1743.2 626.16 1741.66 629.733 1741.66 634C1741.66 638.8 1743.52 642.64 1747.26 645.52C1750.99 648.4 1756.22 649.84 1762.94 649.84C1769.34 649.84 1774.83 648.4 1779.42 645.52C1784.11 642.533 1787.52 638.267 1789.66 632.72L1792.22 640.56C1790.08 646.107 1786.35 650.533 1781.02 653.84C1775.79 657.147 1769.18 658.8 1761.18 658.8ZM1858.43 658.8C1850.54 658.8 1844.46 656.667 1840.19 652.4C1835.92 648.133 1833.79 642.107 1833.79 634.32V555.44H1845.15V633.68C1845.15 638.587 1846.38 642.373 1848.83 645.04C1851.39 647.707 1855.02 649.04 1859.71 649.04C1864.72 649.04 1868.88 647.6 1872.19 644.72L1876.19 652.88C1873.95 654.907 1871.23 656.4 1868.03 657.36C1864.94 658.32 1861.74 658.8 1858.43 658.8ZM1818.75 583.44V574H1870.75V583.44H1818.75ZM1896.87 658V574H1908.23V658H1896.87ZM1902.63 555.44C1900.28 555.44 1898.31 554.64 1896.71 553.04C1895.11 551.44 1894.31 549.52 1894.31 547.28C1894.31 545.04 1895.11 543.173 1896.71 541.68C1898.31 540.08 1900.28 539.28 1902.63 539.28C1904.98 539.28 1906.95 540.027 1908.55 541.52C1910.15 543.013 1910.95 544.88 1910.95 547.12C1910.95 549.467 1910.15 551.44 1908.55 553.04C1907.06 554.64 1905.08 555.44 1902.63 555.44ZM1974.08 658.8C1965.97 658.8 1958.67 656.987 1952.16 653.36C1945.76 649.627 1940.69 644.56 1936.96 638.16C1933.23 631.653 1931.36 624.24 1931.36 615.92C1931.36 607.493 1933.23 600.08 1936.96 593.68C1940.69 587.28 1945.76 582.267 1952.16 578.64C1958.56 575.013 1965.87 573.2 1974.08 573.2C1982.4 573.2 1989.76 575.013 1996.16 578.64C2002.67 582.267 2007.73 587.28 2011.36 593.68C2015.09 600.08 2016.96 607.493 2016.96 615.92C2016.96 624.24 2015.09 631.653 2011.36 638.16C2007.73 644.56 2002.67 649.627 1996.16 653.36C1989.65 656.987 1982.29 658.8 1974.08 658.8ZM1974.08 648.72C1980.16 648.72 1985.55 647.387 1990.24 644.72C1994.93 641.947 1998.61 638.107 2001.28 633.2C2004.05 628.187 2005.44 622.427 2005.44 615.92C2005.44 609.307 2004.05 603.547 2001.28 598.64C1998.61 593.733 1994.93 589.947 1990.24 587.28C1985.55 584.507 1980.21 583.12 1974.24 583.12C1968.27 583.12 1962.93 584.507 1958.24 587.28C1953.55 589.947 1949.81 593.733 1947.04 598.64C1944.27 603.547 1942.88 609.307 1942.88 615.92C1942.88 622.427 1944.27 628.187 1947.04 633.2C1949.81 638.107 1953.55 641.947 1958.24 644.72C1962.93 647.387 1968.21 648.72 1974.08 648.72ZM2083.03 573.2C2089.86 573.2 2095.83 574.533 2100.95 577.2C2106.18 579.76 2110.23 583.707 2113.11 589.04C2116.1 594.373 2117.59 601.093 2117.59 609.2V658H2106.23V610.32C2106.23 601.467 2103.99 594.8 2099.51 590.32C2095.14 585.733 2088.95 583.44 2080.95 583.44C2074.98 583.44 2069.75 584.667 2065.27 587.12C2060.9 589.467 2057.49 592.933 2055.03 597.52C2052.69 602 2051.51 607.44 2051.51 613.84V658H2040.15V574H2051.03V597.04L2049.27 592.72C2051.94 586.64 2056.21 581.893 2062.07 578.48C2067.94 574.96 2074.93 573.2 2083.03 573.2ZM2170.84 658.8C2163.9 658.8 2157.34 657.84 2151.16 655.92C2144.97 653.893 2140.12 651.387 2136.6 648.4L2141.72 639.44C2145.13 642 2149.5 644.24 2154.84 646.16C2160.17 647.973 2165.77 648.88 2171.64 648.88C2179.64 648.88 2185.4 647.653 2188.92 645.2C2192.44 642.64 2194.2 639.28 2194.2 635.12C2194.2 632.027 2193.18 629.627 2191.16 627.92C2189.24 626.107 2186.68 624.773 2183.48 623.92C2180.28 622.96 2176.7 622.16 2172.76 621.52C2168.81 620.88 2164.86 620.133 2160.92 619.28C2157.08 618.427 2153.56 617.2 2150.36 615.6C2147.16 613.893 2144.54 611.6 2142.52 608.72C2140.6 605.84 2139.64 602 2139.64 597.2C2139.64 592.613 2140.92 588.507 2143.48 584.88C2146.04 581.253 2149.77 578.427 2154.68 576.4C2159.69 574.267 2165.77 573.2 2172.92 573.2C2178.36 573.2 2183.8 573.947 2189.24 575.44C2194.68 576.827 2199.16 578.693 2202.68 581.04L2197.72 590.16C2193.98 587.6 2189.98 585.787 2185.72 584.72C2181.45 583.547 2177.18 582.96 2172.92 582.96C2165.34 582.96 2159.74 584.293 2156.12 586.96C2152.6 589.52 2150.84 592.827 2150.84 596.88C2150.84 600.08 2151.8 602.587 2153.72 604.4C2155.74 606.213 2158.36 607.653 2161.56 608.72C2164.86 609.68 2168.44 610.48 2172.28 611.12C2176.22 611.76 2180.12 612.56 2183.96 613.52C2187.9 614.373 2191.48 615.6 2194.68 617.2C2197.98 618.693 2200.6 620.88 2202.52 623.76C2204.54 626.533 2205.56 630.213 2205.56 634.8C2205.56 639.707 2204.17 643.973 2201.4 647.6C2198.73 651.12 2194.78 653.893 2189.56 655.92C2184.44 657.84 2178.2 658.8 2170.84 658.8Z" fill="#E0E0E0"/>
</svg>
