<svg width="921" height="921" viewBox="0 0 921 921" fill="none" xmlns="http://www.w3.org/2000/svg">
<path fill-rule="evenodd" clip-rule="evenodd" d="M150.225 510.449C177.962 510.449 200.449 487.963 200.449 460.224C200.449 432.486 177.962 410 150.225 410C122.486 410 100 432.486 100 460.224C100 487.963 122.486 510.449 150.225 510.449ZM163.009 453.009L150.33 422L137.65 453.009L117.135 479.495L150.33 474.97L183.524 479.495L163.009 453.009Z" fill="black"/>
<path fill-rule="evenodd" clip-rule="evenodd" d="M771.224 510.449C798.963 510.449 821.449 487.963 821.449 460.224C821.449 432.486 798.963 410 771.224 410C743.486 410 721 432.486 721 460.224C721 487.963 743.486 510.449 771.224 510.449ZM784.009 453.009L771.33 422L758.651 453.009L738.135 479.495L771.33 474.97L804.524 479.495L784.009 453.009Z" fill="black"/>
<path fill-rule="evenodd" clip-rule="evenodd" d="M483.002 764.921L460.061 821.028L437.12 764.921L400 717L460.061 725.186L520.121 717L483.002 764.921ZM459.5 733C469.717 733 478 741.283 478 751.5C478 761.717 469.717 770 459.5 770C449.283 770 441 761.717 441 751.5C441 741.283 449.283 733 459.5 733Z" fill="black"/>
<path fill-rule="evenodd" clip-rule="evenodd" d="M483.002 156.109L460.061 100.002L437.119 156.109L400 204.03L460.061 195.844L520.121 204.03L483.002 156.109ZM459.5 188.03C469.717 188.03 478 179.747 478 169.53C478 159.313 469.717 151.03 459.5 151.03C449.282 151.03 441 159.313 441 169.53C441 179.747 449.282 188.03 459.5 188.03Z" fill="black"/>
<rect x="14.1421" width="1282" height="20" transform="rotate(45 14.1421 0)" fill="black"/>
<rect width="1282" height="20" transform="matrix(-0.707107 0.707107 0.707107 0.707107 906.511 0)" fill="black"/>
</svg>
