<svg width="921" height="921" viewBox="0 0 921 921" fill="none" xmlns="http://www.w3.org/2000/svg">
<rect x="14.1421" width="1282" height="20" transform="rotate(45 14.1421 0)" fill="white"/>
<rect width="1282" height="20" transform="matrix(-0.707107 0.707107 0.707107 0.707107 906.511 0)" fill="white"/>
<path d="M447.137 219V61.5781H471.844V219H447.137Z" fill="white"/>
<path d="M830.895 386.188H855.699V546.734H854.527L753.844 441.559V544.195H729.137V383.844H730.406L830.895 488.824V386.188Z" fill="white"/>
<path d="M511.887 736.797H442.844V778.887H502.414V803.496H442.844V870.195H418.137V712.188H511.887V736.797Z" fill="white"/>
<path d="M104.492 544V476.715L52.2461 386.578H80.0781L116.699 449.273L153.418 386.578H181.25L129.004 476.715V544H104.492Z" fill="white"/>
</svg>
